<svg xmlns="http://www.w3.org/2000/svg" xmlns:xlink="http://www.w3.org/1999/xlink" viewBox="0,0,256,256" width="30px" height="30px"><g fill="#433430" fill-rule="nonzero" stroke="none" stroke-width="1" stroke-linecap="butt" stroke-linejoin="miter" stroke-miterlimit="10" stroke-dasharray="" stroke-dashoffset="0" font-family="none" font-weight="none" font-size="none" text-anchor="none" style="mix-blend-mode: normal"><g transform="scale(8.53333,8.53333)"><path d="M24,4h-18c-1.105,0 -2,0.895 -2,2v18c0,1.105 0.895,2 2,2h18c1.105,0 2,-0.895 2,-2v-18c0,-1.105 -0.895,-2 -2,-2zM15.353,19.932h-6.29v-9.864h1.764v8.319h4.525v1.545zM21.484,13.978c-0.13,-0.048 -0.595,-0.096 -0.861,-0.096c-1.087,0 -1.853,0.684 -1.853,1.729v4.32h-1.695v-7.479h1.634v1.162h0.116c0.205,-0.738 1.005,-1.285 1.962,-1.285c0.239,0 0.533,0.027 0.697,0.075z"></path></g></g></svg>